<svg xmlns="http://www.w3.org/2000/svg" style="display:none">
  <!-- Play -->
  <symbol id="icon-play" viewBox="0 0 24 24" fill="none" stroke="currentColor" stroke-width="2" stroke-linecap="round" stroke-linejoin="round">
    <polygon points="5 3 19 12 5 21 5 3"/>
  </symbol>
  <!-- Arrow right -->
  <symbol id="icon-arrow-right" viewBox="0 0 24 24" fill="none" stroke="currentColor" stroke-width="2" stroke-linecap="round" stroke-linejoin="round">
    <path d="M5 12h14M12 5l7 7-7 7"/>
  </symbol>
  <!-- Brain -->
  <symbol id="icon-brain" viewBox="0 0 24 24" fill="none" stroke="currentColor" stroke-width="1.5" stroke-linecap="round" stroke-linejoin="round">
    <path d="M12 5a3 3 0 1 0-5.997.125 4 4 0 0 0-2.526 5.77 4 4 0 0 0 .556 6.588A4 4 0 1 0 12 18Z"/>
    <path d="M12 5a3 3 0 1 1 5.997.125 4 4 0 0 1 2.526 5.77 4 4 0 0 1-.556 6.588A4 4 0 1 1 12 18Z"/>
    <path d="M15 13a4.5 4.5 0 0 1-3-4 4.5 4.5 0 0 1-3 4"/>
    <path d="M17.599 6.5a3 3 0 0 0 .399-1.375"/>
    <path d="M6.003 5.125A3 3 0 0 0 6.401 6.5"/>
    <path d="M3.477 10.896a4 4 0 0 1 .585-.396"/>
    <path d="M19.938 10.5a4 4 0 0 1 .585.396"/>
    <path d="M6 18a4 4 0 0 1-1.967-.516"/>
    <path d="M19.967 17.484A4 4 0 0 1 18 18"/>
  </symbol>
  <!-- Paw -->
  <symbol id="icon-paw" viewBox="0 0 24 24" fill="none" stroke="currentColor" stroke-width="1.5" stroke-linecap="round" stroke-linejoin="round">
    <circle cx="11" cy="4" r="2"/><circle cx="18" cy="8" r="2"/>
    <circle cx="20" cy="16" r="2"/><circle cx="4"  cy="8" r="2"/>
    <path d="M12 17c-2.8 0-5-2.2-5-5a5 5 0 0 1 10 0c0 2.8-2.2 5-5 5Z"/>
  </symbol>
  <!-- Fish -->
  <symbol id="icon-fish" viewBox="0 0 24 24" fill="none" stroke="currentColor" stroke-width="1.5" stroke-linecap="round" stroke-linejoin="round">
    <path d="M6.5 12c.94-3.46 4.94-6 8.5-6 3.56 0 6.06 2.54 7 6-.94 3.47-3.44 6-7 6s-7.56-2.53-8.5-6Z"/>
    <path d="M18 12v.5"/><path d="M16 17.93a9.77 9.77 0 0 1 0-11.86"/>
    <path d="M7 10.67C7 8 5.58 5.97 2.73 5.5c-1 3.5-.5 6.5 1.27 8.5"/>
    <path d="M10.46 7.26C10.2 5.88 9.17 4.24 8 3h5.8a2 2 0 0 1 1.98 1.67l.23 1.4"/>
    <path d="m16.01 17.93-.23 1.4A2 2 0 0 1 13.8 21H8c1.55-1.56 2.58-3.13 2.46-4.73"/>
  </symbol>
  <!-- Octopus -->
  <symbol id="icon-octopus" viewBox="0 0 24 24" fill="none" stroke="currentColor" stroke-width="1.5" stroke-linecap="round" stroke-linejoin="round">
    <path d="M12 2a4 4 0 0 1 4 4c0 1.5-.5 3-1.5 4H9.5C8.5 9 8 7.5 8 6a4 4 0 0 1 4-4Z"/>
    <path d="M8.5 10c-1 2-2.5 3-2.5 5s1 4 2 4 2-1 2-3M15.5 10c1 2 2.5 3 2.5 5s-1 4-2 4-2-1-2-3"/>
    <path d="M9 10c0 3-1 5-2 7M15 10c0 3 1 5 2 7"/>
    <path d="M12 10v6c0 2-.5 3-1 4"/>
    <circle cx="10" cy="6" r="1" fill="currentColor" stroke="none"/>
    <circle cx="14" cy="6" r="1" fill="currentColor" stroke="none"/>
  </symbol>
  <!-- External link -->
  <symbol id="icon-external" viewBox="0 0 24 24" fill="none" stroke="currentColor" stroke-width="2" stroke-linecap="round" stroke-linejoin="round">
    <path d="M18 13v6a2 2 0 0 1-2 2H5a2 2 0 0 1-2-2V8a2 2 0 0 1 2-2h6"/>
    <polyline points="15 3 21 3 21 9"/><line x1="10" y1="14" x2="21" y2="3"/>
  </symbol>
  <!-- Nerve signal -->
  <symbol id="icon-nerve" viewBox="0 0 24 24" fill="none" stroke="currentColor" stroke-width="1.5" stroke-linecap="round" stroke-linejoin="round">
    <path d="M2 12h3l3-8 4 16 3-8h7"/>
  </symbol>
</svg>
